<svg width="36" height="37" viewBox="0 0 36 37" fill="none" xmlns="http://www.w3.org/2000/svg">
<mask id="path-1-inside-1_1498_12474" fill="currentColor">
<path d="M31.5 29V30.5H4.5V29L7.5 26V17C7.5 12.35 10.545 8.255 15 6.935V6.5C15 5.70435 15.3161 4.94129 15.8787 4.37868C16.4413 3.81607 17.2044 3.5 18 3.5C18.7956 3.5 19.5587 3.81607 20.1213 4.37868C20.6839 4.94129 21 5.70435 21 6.5V6.935C25.455 8.255 28.5 12.35 28.5 17V26L31.5 29ZM21 32C21 32.7956 20.6839 33.5587 20.1213 34.1213C19.5587 34.6839 18.7956 35 18 35C17.2044 35 16.4413 34.6839 15.8787 34.1213C15.3161 33.5587 15 32.7956 15 32"/>
</mask>
<path d="M31.5 29V30.5H4.5V29L7.5 26V17C7.5 12.35 10.545 8.255 15 6.935V6.5C15 5.70435 15.3161 4.94129 15.8787 4.37868C16.4413 3.81607 17.2044 3.5 18 3.5C18.7956 3.5 19.5587 3.81607 20.1213 4.37868C20.6839 4.94129 21 5.70435 21 6.5V6.935C25.455 8.255 28.5 12.35 28.5 17V26L31.5 29ZM21 32C21 32.7956 20.6839 33.5587 20.1213 34.1213C19.5587 34.6839 18.7956 35 18 35C17.2044 35 16.4413 34.6839 15.8787 34.1213C15.3161 33.5587 15 32.7956 15 32" fill="currentColor"/>
<path d="M31.5 29H32.5V28.5858L32.2071 28.2929L31.5 29ZM31.5 30.5V31.5H32.5V30.5H31.5ZM4.5 30.5H3.5V31.5H4.5V30.5ZM4.5 29L3.79289 28.2929L3.5 28.5858V29H4.5ZM7.5 26L8.20711 26.7071L8.5 26.4142V26H7.5ZM15 6.935L15.2841 7.8938L16 7.68168V6.935H15ZM18 3.5V2.5V3.5ZM21 6.935H20V7.68168L20.7159 7.8938L21 6.935ZM28.5 26H27.5V26.4142L27.7929 26.7071L28.5 26ZM30.5 29V30.5H32.5V29H30.5ZM31.5 29.5H4.5V31.5H31.5V29.5ZM5.5 30.5V29H3.5V30.5H5.5ZM5.20711 29.7071L8.20711 26.7071L6.79289 25.2929L3.79289 28.2929L5.20711 29.7071ZM8.5 26V17H6.5V26H8.5ZM8.5 17C8.5 12.7908 11.2557 9.08739 15.2841 7.8938L14.7159 5.9762C9.83427 7.42261 6.5 11.9092 6.5 17H8.5ZM16 6.935V6.5H14V6.935H16ZM16 6.5C16 5.96957 16.2107 5.46086 16.5858 5.08579L15.1716 3.67157C14.4214 4.42172 14 5.43913 14 6.5H16ZM16.5858 5.08579C16.9609 4.71071 17.4696 4.5 18 4.5V2.5C16.9391 2.5 15.9217 2.92143 15.1716 3.67157L16.5858 5.08579ZM18 4.5C18.5304 4.5 19.0391 4.71071 19.4142 5.08579L20.8284 3.67157C20.0783 2.92143 19.0609 2.5 18 2.5V4.5ZM19.4142 5.08579C19.7893 5.46086 20 5.96957 20 6.5H22C22 5.43913 21.5786 4.42172 20.8284 3.67157L19.4142 5.08579ZM20 6.5V6.935H22V6.5H20ZM20.7159 7.8938C24.7443 9.08739 27.5 12.7908 27.5 17H29.5C29.5 11.9092 26.1657 7.42261 21.2841 5.9762L20.7159 7.8938ZM27.5 17V26H29.5V17H27.5ZM27.7929 26.7071L30.7929 29.7071L32.2071 28.2929L29.2071 25.2929L27.7929 26.7071ZM20 32C20 32.5304 19.7893 33.0391 19.4142 33.4142L20.8284 34.8284C21.5786 34.0783 22 33.0609 22 32H20ZM19.4142 33.4142C19.0391 33.7893 18.5304 34 18 34V36C19.0609 36 20.0783 35.5786 20.8284 34.8284L19.4142 33.4142ZM18 34C17.4696 34 16.9609 33.7893 16.5858 33.4142L15.1716 34.8284C15.9217 35.5786 16.9391 36 18 36V34ZM16.5858 33.4142C16.2107 33.0391 16 32.5304 16 32H14C14 33.0609 14.4214 34.0783 15.1716 34.8284L16.5858 33.4142Z" fill="currentColor" mask="url(#path-1-inside-1_1498_12474)"/>
</svg>