<svg width="24" height="24" viewBox="0 0 24 24" fill="none" xmlns="http://www.w3.org/2000/svg">
<path d="M12.0003 8.66667C12.264 8.66667 12.5218 8.58847 12.7411 8.44196C12.9604 8.29545 13.1312 8.08721 13.2322 7.84358C13.3331 7.59994 13.3595 7.33185 13.308 7.07321C13.2566 6.81457 13.1296 6.57699 12.9431 6.39052C12.7567 6.20405 12.5191 6.07707 12.2604 6.02562C12.0018 5.97417 11.7337 6.00058 11.4901 6.10149C11.2464 6.20241 11.0382 6.37331 10.8917 6.59257C10.7452 6.81184 10.667 7.06963 10.667 7.33333C10.667 7.68696 10.8075 8.02609 11.0575 8.27614C11.3076 8.52619 11.6467 8.66667 12.0003 8.66667ZM12.0003 15.3333C11.7366 15.3333 11.4788 15.4115 11.2596 15.558C11.0403 15.7045 10.8694 15.9128 10.7685 16.1564C10.6676 16.4001 10.6412 16.6681 10.6926 16.9268C10.7441 17.1854 10.871 17.423 11.0575 17.6095C11.244 17.7959 11.4816 17.9229 11.7402 17.9744C11.9988 18.0258 12.2669 17.9994 12.5106 17.8985C12.7542 17.7976 12.9624 17.6267 13.109 17.4074C13.2555 17.1882 13.3337 16.9304 13.3337 16.6667C13.3337 16.313 13.1932 15.9739 12.9431 15.7239C12.6931 15.4738 12.3539 15.3333 12.0003 15.3333ZM12.0003 10.6667C11.7366 10.6667 11.4788 10.7449 11.2596 10.8914C11.0403 11.0379 10.8694 11.2461 10.7685 11.4898C10.6676 11.7334 10.6412 12.0015 10.6926 12.2601C10.7441 12.5188 10.871 12.7563 11.0575 12.9428C11.244 13.1293 11.4816 13.2563 11.7402 13.3077C11.9988 13.3592 12.2669 13.3328 12.5106 13.2318C12.7542 13.1309 12.9624 12.96 13.109 12.7408C13.2555 12.5215 13.3337 12.2637 13.3337 12C13.3337 11.6464 13.1932 11.3072 12.9431 11.0572C12.6931 10.8071 12.3539 10.6667 12.0003 10.6667Z" fill="currentColor"/>
</svg>