<svg width="18" height="18" viewBox="0 0 18 18" fill="none" xmlns="http://www.w3.org/2000/svg">
<path d="M2.25 15.75L15.75 15.75C16.3688 15.75 16.875 15.2438 16.875 14.625V3.375C16.875 2.75625 16.3688 2.25 15.75 2.25L2.25 2.25C1.63125 2.25 1.125 2.75625 1.125 3.375L1.125 14.625C1.125 15.2438 1.63125 15.75 2.25 15.75ZM2.25 3.375L11.25 3.375L11.25 8.4375L5.5125 8.4375L7.5375 6.4125L6.75 5.625L3.375 9L6.75 12.375L7.5375 11.5875L5.5125 9.5625L11.25 9.5625V14.625L2.25 14.625L2.25 3.375Z" fill="currentColor"/>
</svg>