<svg width="44" height="45" viewBox="0 0 44 45" fill="none" xmlns="http://www.w3.org/2000/svg">
<path d="M22.0003 36.2003H22.0006C24.2565 36.1992 26.4776 35.6433 28.4681 34.5817C30.4587 33.52 32.1577 31.9852 33.4154 30.1124L33.5026 29.9826L33.5003 29.8262C33.4838 28.7309 32.9257 27.7975 32.117 27.035C31.3105 26.2745 30.222 25.6504 29.0488 25.1562C26.7047 24.1687 23.9026 23.6503 22.0003 23.6503C20.0981 23.6503 17.296 24.1687 14.9518 25.1562C13.7787 25.6504 12.6902 26.2745 11.8836 27.035C11.0749 27.7975 10.5168 28.7309 10.5004 29.8262L10.498 29.9826L10.5853 30.1125C13.039 33.7645 17.243 36.2003 22.0003 36.2003ZM26.243 10.9244C25.1177 9.79913 23.5916 9.16699 22.0003 9.16699C20.409 9.16699 18.8829 9.79913 17.7577 10.9244C16.6325 12.0496 16.0003 13.5757 16.0003 15.167C16.0003 16.7583 16.6325 18.2844 17.7577 19.4096C18.8829 20.5349 20.409 21.167 22.0003 21.167C23.5916 21.167 25.1177 20.5349 26.243 19.4096C27.3682 18.2844 28.0003 16.7583 28.0003 15.167C28.0003 13.5757 27.3682 12.0496 26.243 10.9244ZM15.1758 6.02447C17.3394 5.12827 19.6584 4.66699 22.0003 4.66699C31.8085 4.66699 39.8337 12.6391 39.8337 22.5003C39.8337 27.23 37.9548 31.766 34.6104 35.1104C31.266 38.4548 26.73 40.3337 22.0003 40.3337C19.6584 40.3337 17.3394 39.8724 15.1758 38.9762C13.0122 38.08 11.0462 36.7664 9.39025 35.1104C6.04586 31.766 4.16699 27.23 4.16699 22.5003C4.16699 17.7706 6.04586 13.2347 9.39025 9.89025C11.0462 8.23428 13.0122 6.92068 15.1758 6.02447Z" fill="currentColor" stroke="currentColor"/>
</svg>