<svg width="14" height="14" viewBox="0 0 14 14" fill="none" xmlns="http://www.w3.org/2000/svg">
<path d="M7.00033 1.16667C5.45934 1.18632 3.987 1.80721 2.89727 2.89695C1.80754 3.98668 1.18664 5.45902 1.16699 7C1.1742 7.89771 1.3885 8.78163 1.79321 9.58296C2.19792 10.3843 2.78212 11.0814 3.50033 11.62V11.6667H3.55866C4.54635 12.4235 5.75599 12.8337 7.00033 12.8337C8.24466 12.8337 9.4543 12.4235 10.442 11.6667H10.5003V11.62C11.2185 11.0814 11.8027 10.3843 12.2074 9.58296C12.6122 8.78163 12.8265 7.89771 12.8337 7C12.814 5.45902 12.1931 3.98668 11.1034 2.89695C10.0137 1.80721 8.54131 1.18632 7.00033 1.16667V1.16667ZM4.70783 11.0425C4.79298 10.6525 5.00891 10.3034 5.31979 10.053C5.63067 9.80256 6.01781 9.66596 6.41699 9.66584H7.58366C7.98284 9.66596 8.36998 9.80256 8.68086 10.053C8.99174 10.3034 9.20767 10.6525 9.29283 11.0425C8.598 11.4513 7.80649 11.6669 7.00033 11.6669C6.19416 11.6669 5.40265 11.4513 4.70783 11.0425V11.0425ZM10.2728 10.29C10.0509 9.75972 9.67731 9.30683 9.19886 8.98821C8.72042 8.6696 8.15849 8.49946 7.58366 8.49917H6.41699C5.84216 8.49946 5.28023 8.6696 4.80179 8.98821C4.32334 9.30683 3.94971 9.75972 3.72783 10.29C3.29071 9.86008 2.9426 9.34824 2.70338 8.78373C2.46417 8.21921 2.33853 7.61309 2.33366 7C2.34879 5.76703 2.84531 4.58881 3.71722 3.7169C4.58913 2.84499 5.76735 2.34847 7.00033 2.33334C8.2333 2.34847 9.41152 2.84499 10.2834 3.7169C11.1553 4.58881 11.6519 5.76703 11.667 7C11.6621 7.61309 11.5365 8.21921 11.2973 8.78373C11.058 9.34824 10.7099 9.86008 10.2728 10.29V10.29Z" fill="currentColor"/>
<path d="M6.99997 3.49999C6.69159 3.49281 6.38495 3.54825 6.09861 3.66297C5.81227 3.77769 5.55217 3.9493 5.33406 4.16742C5.11594 4.38553 4.94433 4.64563 4.82961 4.93197C4.71489 5.21831 4.65945 5.52494 4.66663 5.83333C4.65945 6.14171 4.71489 6.44834 4.82961 6.73468C4.94433 7.02102 5.11594 7.28112 5.33406 7.49924C5.55217 7.71736 5.81227 7.88896 6.09861 8.00368C6.38495 8.1184 6.69159 8.17384 6.99997 8.16666C7.30835 8.17384 7.61498 8.1184 7.90132 8.00368C8.18767 7.88896 8.44776 7.71736 8.66588 7.49924C8.884 7.28112 9.05561 7.02102 9.17032 6.73468C9.28504 6.44834 9.34048 6.14171 9.3333 5.83333C9.34048 5.52494 9.28504 5.21831 9.17032 4.93197C9.05561 4.64563 8.884 4.38553 8.66588 4.16742C8.44776 3.9493 8.18767 3.77769 7.90132 3.66297C7.61498 3.54825 7.30835 3.49281 6.99997 3.49999V3.49999ZM6.99997 6.99999C6.84477 7.0075 6.68972 6.98245 6.54478 6.92648C6.39983 6.8705 6.2682 6.78483 6.15833 6.67496C6.04846 6.56509 5.96279 6.43346 5.90682 6.28852C5.85084 6.14357 5.8258 5.98852 5.8333 5.83333C5.8258 5.67813 5.85084 5.52308 5.90682 5.37814C5.96279 5.23319 6.04846 5.10156 6.15833 4.99169C6.2682 4.88182 6.39983 4.79615 6.54478 4.74017C6.68972 4.6842 6.84477 4.65916 6.99997 4.66666C7.15516 4.65916 7.31021 4.6842 7.45516 4.74017C7.6001 4.79615 7.73173 4.88182 7.8416 4.99169C7.95147 5.10156 8.03714 5.23319 8.09312 5.37814C8.1491 5.52308 8.17414 5.67813 8.16663 5.83333C8.17414 5.98852 8.1491 6.14357 8.09312 6.28852C8.03714 6.43346 7.95147 6.56509 7.8416 6.67496C7.73173 6.78483 7.6001 6.8705 7.45516 6.92648C7.31021 6.98245 7.15516 7.0075 6.99997 6.99999Z" fill="currentColor"/>
</svg>